<svg xmlns="http://www.w3.org/2000/svg" width="120.782" height="124.558" viewBox="0 0 120.782 124.558">
  <g id="Group_268" data-name="Group 268" transform="translate(-238.61 -529.542)">
    <path id="Path_258" data-name="Path 258" d="M373.653,729.113" transform="translate(-85.565 -126.791)" fill="none" stroke="#aaacaf" stroke-linecap="round" stroke-miterlimit="10" stroke-width="1"/>
    <line id="Line_16" data-name="Line 16" x1="4.266" y2="1.136" transform="translate(294.77 571.527)" fill="none" stroke="#aaacaf" stroke-linecap="round" stroke-miterlimit="10" stroke-width="1"/>
    <path id="Path_259" data-name="Path 259" d="M403.806,644.3" transform="translate(-104.77 -72.772)" fill="none" stroke="#aaacaf" stroke-linecap="round" stroke-miterlimit="10" stroke-width="1"/>
    <path id="Path_260" data-name="Path 260" d="M369.278,656.117l-2.494,11.072,68.9-21.894-3.3-9.014-5.071-3.686-6.481-18.09-10.193,2.715" transform="translate(-81.19 -53.795)" fill="none" stroke="#aaacaf" stroke-linecap="round" stroke-linejoin="round" stroke-miterlimit="10" stroke-width="1"/>
    <path id="Path_261" data-name="Path 261" d="M392.057,647.429" transform="translate(-97.287 -74.765)" fill="none" stroke="#aaacaf" stroke-linecap="round" stroke-miterlimit="10" stroke-width="1"/>
    <path id="Path_262" data-name="Path 262" d="M270.093,594.665,258.18,618.349l-3.938-2.672-5.4,7.644,42.823,31.232,2.494-11.072" transform="translate(-6.072 -41.159)" fill="none" stroke="#aaacaf" stroke-linecap="round" stroke-linejoin="round" stroke-miterlimit="10" stroke-width="1"/>
    <line id="Line_17" data-name="Line 17" x1="24.795" y1="15.448" transform="translate(267.13 555.443)" fill="none" stroke="#aaacaf" stroke-linecap="round" stroke-miterlimit="10" stroke-width="1"/>
    <line id="Line_18" data-name="Line 18" x1="18.716" y2="4.197" transform="translate(264.021 549.309)" fill="none" stroke="#aaacaf" stroke-linecap="round" stroke-miterlimit="10" stroke-width="1"/>
    <line id="Line_19" data-name="Line 19" x1="27.568" y1="14.742" transform="translate(312.076 545.967)" fill="none" stroke="#aaacaf" stroke-linecap="round" stroke-miterlimit="10" stroke-width="1"/>
    <path id="Path_263" data-name="Path 263" d="M244,669.026l-4.69,1.254v5.8l7.343,5.53,37.653,28.358,74.457-24.47v-4.586l-5.322-3.771" transform="translate(0 -88.521)" fill="none" stroke="#aaacaf" stroke-linecap="round" stroke-linejoin="round" stroke-miterlimit="10" stroke-width="1"/>
    <path id="Path_264" data-name="Path 264" d="M266.134,756.281" transform="translate(-17.085 -144.095)" fill="none" stroke="#aaacaf" stroke-linecap="round" stroke-miterlimit="10" stroke-width="1"/>
    <path id="Path_265" data-name="Path 265" d="M259.533,703.673l2.4,19.1,37.43,29.461,62.3-21.854,3.78-20.782" transform="translate(-12.881 -110.588)" fill="none" stroke="#aaacaf" stroke-linecap="round" stroke-linejoin="round" stroke-miterlimit="10" stroke-width="1"/>
    <line id="Line_20" data-name="Line 20" x2="2.173" y2="20.204" transform="translate(284.305 621.443)" fill="none" stroke="#aaacaf" stroke-linecap="round" stroke-miterlimit="10" stroke-width="1"/>
    <path id="Path_266" data-name="Path 266" d="M239.309,672.48l46.083,34.411,73.37-23.784" transform="translate(0 -90.721)" fill="none" stroke="#aaacaf" stroke-linecap="round" stroke-linejoin="round" stroke-miterlimit="10" stroke-width="1"/>
    <path id="Path_267" data-name="Path 267" d="M301.033,783.774v10.785s-.247,2.052,1.082,2.052,1.087-2.294,1.087-2.294l.017-8.823" transform="translate(-39.301 -161.605)" fill="none" stroke="#aaacaf" stroke-linecap="round" stroke-linejoin="round" stroke-miterlimit="10" stroke-width="1"/>
    <path id="Path_268" data-name="Path 268" d="M366.205,834.986v10.785s-.246,2.052,1.082,2.052,1.087-2.294,1.087-2.294l.017-10.047" transform="translate(-80.81 -194.223)" fill="none" stroke="#aaacaf" stroke-linecap="round" stroke-linejoin="round" stroke-miterlimit="10" stroke-width="1"/>
    <path id="Path_269" data-name="Path 269" d="M488.892,794.09v6.552s-.246,2.052,1.082,2.052,1.086-2.294,1.086-2.294l.017-7.076" transform="translate(-158.952 -167.689)" fill="none" stroke="#aaacaf" stroke-linecap="round" stroke-linejoin="round" stroke-miterlimit="10" stroke-width="1"/>
    <path id="Path_270" data-name="Path 270" d="M341.758,591.894l-9.781,2.214,22.579,14.006,28.133-7-11.591-6.73" transform="translate(-59.022 -39.395)" fill="none" stroke="#aaacaf" stroke-linecap="round" stroke-linejoin="round" stroke-miterlimit="10" stroke-width="1"/>
    <path id="Path_271" data-name="Path 271" d="M358.916,533.7l17.885-3.661,11.24,6.576L370.586,540.6Z" transform="translate(-76.179 0)" fill="none" stroke="#aaacaf" stroke-linecap="round" stroke-linejoin="round" stroke-miterlimit="10" stroke-width="1"/>
    <path id="Path_272" data-name="Path 272" d="M358.916,560.844v4.68l11.349,6.886,17.99-4.471V548.153" transform="translate(-76.179 -11.535)" fill="none" stroke="#aaacaf" stroke-linecap="round" stroke-linejoin="round" stroke-miterlimit="10" stroke-width="1"/>
    <line id="Line_21" data-name="Line 21" y2="15.605" transform="translate(282.737 533.704)" fill="none" stroke="#aaacaf" stroke-linecap="round" stroke-miterlimit="10" stroke-width="1"/>
    <line id="Line_22" data-name="Line 22" y2="20.274" transform="translate(294.407 540.6)" fill="none" stroke="#aaacaf" stroke-linecap="round" stroke-miterlimit="10" stroke-width="1"/>
    <path id="Path_273" data-name="Path 273" d="M370.1,645.435,357.586,671.01l5.834,4.083,17.146-5.17-6.2-25.625" transform="translate(-75.332 -72.772)" fill="none" stroke="#aaacaf" stroke-linecap="round" stroke-linejoin="round" stroke-miterlimit="10" stroke-width="1"/>
    <path id="Path_274" data-name="Path 274" d="M295.229,600l-11.8,23.84,6.386,4.167-1.4,7.746,6.118,4.347,4.669-4.669,7.888,5.313,12.931-25.3" transform="translate(-28.099 -44.557)" fill="none" stroke="#aaacaf" stroke-linecap="round" stroke-linejoin="round" stroke-miterlimit="10" stroke-width="1"/>
    <line id="Line_23" data-name="Line 23" y1="2.423" x2="6.501" transform="translate(248.17 572.095)" fill="none" stroke="#aaacaf" stroke-linecap="round" stroke-miterlimit="10" stroke-width="1"/>
    <path id="Path_275" data-name="Path 275" d="M487.577,621.983l4.961,24.31,16.783-5.249" transform="translate(-158.125 -58.558)" fill="none" stroke="#aaacaf" stroke-linecap="round" stroke-linejoin="round" stroke-miterlimit="10" stroke-width="1"/>
  </g>
</svg>
